PathFileType	4	(X/Y/Z)	E:/New_biomech_experiments/MICROGRAVITY MOCAP/Session 2024-06-22/Neeraj_StickPose_22_06_24.trc	
DataRate	CameraRate	NumFrames	NumMarkers	Units	OrigDataRate	OrigDataStartFrame	OrigNumFrames	
120.00	120.00	24	19	m	120.00	1374	1570	
Frame#	Time	 RSHO			 RBAK			 LBHD			 RUPA			 PRSHO			 RWRA			 RELB			 RFRM			 CLAV			 STRN			 ARSHO			 RFHD			 LFHD			 DIA			 C7			 RBHD			 MRELB			 RWRB			 T10			
		X1	Y1	Z1	X2	Y2	Z2	X3	Y3	Z3	X4	Y4	Z4	X5	Y5	Z5	X6	Y6	Z6	X7	Y7	Z7	X8	Y8	Z8	X9	Y9	Z9	X10	Y10	Z10	X11	Y11	Z11	X12	Y12	Z12	X13	Y13	Z13	X14	Y14	Z14	X15	Y15	Z15	X16	Y16	Z16	X17	Y17	Z17	X18	Y18	Z18	X19	Y19	Z19	

1374	11.442	-0.00219	1.51763	0.18628	-0.11193	1.36484	0.04616	-0.03440	1.71756	-0.08246	0.01100	1.30428	0.23314	-0.08971	1.46611	0.13084	0.04798	0.88503	0.21204	0.00471	1.16223	0.24165	0.01220	1.02697	0.25347	0.11090	1.48421	-0.02901	0.15175	1.32195	-0.02271	0.09314	1.46001	0.13777	0.07197	1.81375	0.05718	0.08330	1.82766	-0.04504	0.08883	1.16544	0.13576	-0.08138	1.53104	-0.02114	-0.05781	1.72030	0.02392	-0.05731	1.14564	0.13877	-0.04653	0.86524	0.23841	-0.10396	1.33597	-0.02428 
1375	11.450	-0.00222	1.51762	0.18630	-0.11196	1.36482	0.04618	-0.03446	1.71755	-0.08243	0.01096	1.30428	0.23318	-0.08976	1.46608	0.13086	0.04795	0.88503	0.21210	0.00467	1.16224	0.24170	0.01216	1.02698	0.25353	0.11087	1.48421	-0.02898	0.15172	1.32194	-0.02267	0.09309	1.46001	0.13780	0.07189	1.81376	0.05721	0.08320	1.82768	-0.04503	0.08881	1.16544	0.13580	-0.08142	1.53103	-0.02110	-0.05789	1.72032	0.02396	-0.05734	1.14563	0.13882	-0.04656	0.86525	0.23847	-0.10410	1.33604	-0.02423 
1376	11.458	-0.00223	1.51756	0.18626	-0.11199	1.36480	0.04620	-0.03452	1.71754	-0.08239	0.01092	1.30428	0.23322	-0.08979	1.46606	0.13088	0.04793	0.88503	0.21216	0.00464	1.16225	0.24175	0.01213	1.02698	0.25358	0.11084	1.48422	-0.02894	0.15169	1.32194	-0.02263	0.09306	1.46001	0.13784	0.07182	1.81376	0.05724	0.08310	1.82770	-0.04502	0.08879	1.16544	0.13583	-0.08146	1.53104	-0.02106	-0.05794	1.72031	0.02398	-0.05736	1.14563	0.13886	-0.04659	0.86525	0.23853	-0.10430	1.33615	-0.02418 
1377	11.467	-0.00223	1.51747	0.18621	-0.11201	1.36478	0.04623	-0.03458	1.71753	-0.08235	0.01090	1.30428	0.23326	-0.08983	1.46604	0.13091	0.04791	0.88503	0.21222	0.00462	1.16227	0.24180	0.01211	1.02700	0.25365	0.11081	1.48422	-0.02891	0.15166	1.32193	-0.02259	0.09302	1.46001	0.13787	0.07176	1.81377	0.05727	0.08301	1.82772	-0.04502	0.08877	1.16543	0.13585	-0.08150	1.53106	-0.02101	-0.05795	1.72028	0.02399	-0.05738	1.14562	0.13890	-0.04662	0.86525	0.23859	-0.10445	1.33623	-0.02412 
1378	11.475	-0.00224	1.51742	0.18621	-0.11204	1.36477	0.04626	-0.03463	1.71753	-0.08231	0.01087	1.30428	0.23330	-0.08986	1.46602	0.13095	0.04789	0.88502	0.21228	0.00461	1.16228	0.24185	0.01209	1.02703	0.25371	0.11079	1.48423	-0.02887	0.15163	1.32193	-0.02255	0.09299	1.46001	0.13791	0.07171	1.81378	0.05731	0.08292	1.82774	-0.04500	0.08875	1.16543	0.13588	-0.08154	1.53112	-0.02096	-0.05792	1.72022	0.02396	-0.05739	1.14561	0.13894	-0.04664	0.86525	0.23865	-0.10445	1.33619	-0.02408 
1379	11.483	-0.00226	1.51741	0.18624	-0.11206	1.36476	0.04629	-0.03468	1.71752	-0.08227	0.01085	1.30428	0.23334	-0.08989	1.46601	0.13098	0.04788	0.88502	0.21234	0.00460	1.16229	0.24191	0.01207	1.02705	0.25377	0.11077	1.48424	-0.02883	0.15161	1.32192	-0.02250	0.09296	1.46000	0.13794	0.07165	1.81378	0.05734	0.08284	1.82776	-0.04498	0.08874	1.16543	0.13592	-0.08157	1.53115	-0.02091	-0.05785	1.72015	0.02391	-0.05739	1.14560	0.13899	-0.04666	0.86526	0.23870	-0.10442	1.33613	-0.02403 
1380	11.492	-0.00227	1.51736	0.18623	-0.11208	1.36475	0.04634	-0.03472	1.71752	-0.08223	0.01083	1.30427	0.23338	-0.08991	1.46600	0.13102	0.04788	0.88502	0.21240	0.00459	1.16229	0.24196	0.01205	1.02707	0.25383	0.11075	1.48425	-0.02879	0.15160	1.32192	-0.02246	0.09294	1.46000	0.13798	0.07160	1.81378	0.05738	0.08278	1.82777	-0.04495	0.08873	1.16543	0.13596	-0.08160	1.53113	-0.02086	-0.05772	1.72004	0.02380	-0.05739	1.14559	0.13904	-0.04668	0.86526	0.23876	-0.10446	1.33613	-0.02397 
1381	11.500	-0.00225	1.51727	0.18618	-0.11210	1.36474	0.04638	-0.03476	1.71752	-0.08220	0.01082	1.30426	0.23342	-0.08993	1.46599	0.13106	0.04787	0.88502	0.21245	0.00458	1.16230	0.24202	0.01203	1.02709	0.25389	0.11074	1.48426	-0.02875	0.15158	1.32191	-0.02241	0.09291	1.45999	0.13802	0.07155	1.81378	0.05742	0.08272	1.82777	-0.04491	0.08873	1.16543	0.13600	-0.08162	1.53110	-0.02082	-0.05752	1.71988	0.02361	-0.05740	1.14558	0.13909	-0.04669	0.86526	0.23882	-0.10447	1.33611	-0.02391 
1382	11.508	-0.00224	1.51719	0.18614	-0.11211	1.36474	0.04642	-0.03480	1.71752	-0.08216	0.01081	1.30426	0.23347	-0.08995	1.46598	0.13111	0.04787	0.88502	0.21250	0.00458	1.16230	0.24209	0.01201	1.02712	0.25395	0.11073	1.48428	-0.02870	0.15157	1.32191	-0.02237	0.09289	1.45998	0.13805	0.07150	1.81378	0.05745	0.08268	1.82778	-0.04486	0.08873	1.16543	0.13604	-0.08164	1.53110	-0.02077	-0.05730	1.71973	0.02341	-0.05741	1.14557	0.13915	-0.04669	0.86525	0.23887	-0.10433	1.33597	-0.02386 
1383	11.517	-0.00223	1.51713	0.18612	-0.11212	1.36473	0.04647	-0.03483	1.71751	-0.08212	0.01081	1.30425	0.23353	-0.08996	1.46597	0.13115	0.04788	0.88503	0.21255	0.00457	1.16229	0.24214	0.01199	1.02713	0.25401	0.11072	1.48429	-0.02865	0.15155	1.32190	-0.02233	0.09288	1.45997	0.13809	0.07146	1.81378	0.05749	0.08264	1.82779	-0.04481	0.08873	1.16543	0.13609	-0.08166	1.53113	-0.02072	-0.05719	1.71965	0.02333	-0.05742	1.14555	0.13921	-0.04669	0.86524	0.23892	-0.10414	1.33580	-0.02382 
1384	11.525	-0.00221	1.51703	0.18608	-0.11213	1.36472	0.04652	-0.03486	1.71751	-0.08208	0.01081	1.30425	0.23359	-0.08997	1.46596	0.13120	0.04788	0.88503	0.21260	0.00456	1.16227	0.24219	0.01198	1.02714	0.25407	0.11071	1.48429	-0.02861	0.15153	1.32189	-0.02228	0.09287	1.45996	0.13813	0.07142	1.81379	0.05754	0.08261	1.82779	-0.04475	0.08874	1.16544	0.13614	-0.08169	1.53121	-0.02066	-0.05725	1.71966	0.02340	-0.05742	1.14553	0.13927	-0.04669	0.86523	0.23898	-0.10400	1.33567	-0.02377 
1385	11.533	-0.00218	1.51694	0.18603	-0.11214	1.36471	0.04657	-0.03488	1.71750	-0.08204	0.01081	1.30425	0.23365	-0.08998	1.46595	0.13125	0.04789	0.88504	0.21265	0.00454	1.16226	0.24225	0.01197	1.02715	0.25413	0.11071	1.48427	-0.02858	0.15151	1.32187	-0.02224	0.09286	1.45994	0.13817	0.07139	1.81379	0.05758	0.08258	1.82779	-0.04469	0.08875	1.16543	0.13618	-0.08170	1.53128	-0.02059	-0.05740	1.71974	0.02356	-0.05743	1.14552	0.13934	-0.04668	0.86522	0.23902	-0.10390	1.33557	-0.02372 
1386	11.542	-0.00216	1.51687	0.18601	-0.11214	1.36471	0.04661	-0.03490	1.71749	-0.08200	0.01083	1.30424	0.23371	-0.08998	1.46595	0.13129	0.04790	0.88505	0.21270	0.00453	1.16225	0.24231	0.01196	1.02717	0.25419	0.11071	1.48426	-0.02855	0.15149	1.32186	-0.02220	0.09285	1.45993	0.13821	0.07135	1.81380	0.05763	0.08256	1.82778	-0.04463	0.08875	1.16543	0.13622	-0.08171	1.53131	-0.02054	-0.05761	1.71985	0.02377	-0.05743	1.14550	0.13939	-0.04667	0.86521	0.23907	-0.10381	1.33550	-0.02367 
1387	11.550	-0.00215	1.51683	0.18601	-0.11214	1.36471	0.04666	-0.03491	1.71748	-0.08196	0.01086	1.30424	0.23378	-0.08998	1.46594	0.13134	0.04791	0.88505	0.21276	0.00454	1.16226	0.24238	0.01196	1.02716	0.25425	0.11071	1.48425	-0.02851	0.15147	1.32184	-0.02216	0.09285	1.45991	0.13825	0.07132	1.81380	0.05768	0.08254	1.82778	-0.04456	0.08875	1.16542	0.13625	-0.08172	1.53136	-0.02048	-0.05785	1.71999	0.02399	-0.05743	1.14549	0.13944	-0.04667	0.86520	0.23912	-0.10375	1.33545	-0.02362 
1388	11.558	-0.00214	1.51681	0.18603	-0.11214	1.36470	0.04671	-0.03492	1.71747	-0.08192	0.01091	1.30424	0.23385	-0.08998	1.46594	0.13139	0.04793	0.88506	0.21282	0.00456	1.16227	0.24245	0.01197	1.02715	0.25430	0.11071	1.48424	-0.02847	0.15146	1.32182	-0.02211	0.09285	1.45990	0.13829	0.07129	1.81381	0.05773	0.08253	1.82778	-0.04449	0.08874	1.16541	0.13628	-0.08172	1.53143	-0.02042	-0.05808	1.72011	0.02419	-0.05742	1.14547	0.13949	-0.04667	0.86519	0.23916	-0.10369	1.33541	-0.02357 
1389	11.567	-0.00213	1.51680	0.18607	-0.11214	1.36471	0.04676	-0.03492	1.71746	-0.08188	0.01097	1.30423	0.23392	-0.08997	1.46594	0.13144	0.04794	0.88506	0.21288	0.00458	1.16228	0.24250	0.01199	1.02714	0.25435	0.11072	1.48424	-0.02843	0.15145	1.32181	-0.02207	0.09285	1.45988	0.13833	0.07127	1.81381	0.05778	0.08252	1.82777	-0.04442	0.08874	1.16540	0.13631	-0.08172	1.53147	-0.02037	-0.05826	1.72022	0.02433	-0.05740	1.14547	0.13953	-0.04667	0.86518	0.23921	-0.10365	1.33538	-0.02351 
1390	11.575	-0.00212	1.51681	0.18613	-0.11213	1.36471	0.04682	-0.03492	1.71746	-0.08184	0.01104	1.30422	0.23398	-0.08996	1.46594	0.13149	0.04795	0.88506	0.21294	0.00460	1.16228	0.24255	0.01200	1.02713	0.25439	0.11073	1.48423	-0.02838	0.15144	1.32180	-0.02202	0.09285	1.45987	0.13837	0.07126	1.81381	0.05784	0.08252	1.82776	-0.04435	0.08873	1.16539	0.13634	-0.08171	1.53149	-0.02031	-0.05839	1.72029	0.02445	-0.05737	1.14546	0.13956	-0.04667	0.86518	0.23925	-0.10362	1.33535	-0.02346 
1391	11.583	-0.00211	1.51684	0.18620	-0.11212	1.36471	0.04688	-0.03492	1.71746	-0.08180	0.01111	1.30420	0.23404	-0.08995	1.46594	0.13155	0.04796	0.88505	0.21299	0.00463	1.16228	0.24259	0.01203	1.02712	0.25444	0.11073	1.48423	-0.02834	0.15144	1.32179	-0.02197	0.09286	1.45985	0.13841	0.07125	1.81381	0.05789	0.08253	1.82775	-0.04428	0.08873	1.16538	0.13636	-0.08171	1.53149	-0.02026	-0.05846	1.72032	0.02453	-0.05735	1.14545	0.13960	-0.04668	0.86518	0.23930	-0.10359	1.33533	-0.02341 
1392	11.592	-0.00211	1.51689	0.18629	-0.11212	1.36472	0.04694	-0.03491	1.71746	-0.08176	0.01116	1.30419	0.23408	-0.08994	1.46594	0.13160	0.04797	0.88505	0.21305	0.00467	1.16228	0.24263	0.01205	1.02711	0.25448	0.11074	1.48422	-0.02830	0.15144	1.32178	-0.02193	0.09287	1.45983	0.13845	0.07125	1.81381	0.05794	0.08255	1.82774	-0.04421	0.08873	1.16538	0.13640	-0.08170	1.53152	-0.02021	-0.05849	1.72033	0.02460	-0.05732	1.14544	0.13963	-0.04668	0.86518	0.23934	-0.10356	1.33532	-0.02336 
1393	11.600	-0.00211	1.51697	0.18641	-0.11210	1.36472	0.04700	-0.03490	1.71746	-0.08172	0.01119	1.30417	0.23412	-0.08992	1.46594	0.13166	0.04797	0.88505	0.21310	0.00470	1.16227	0.24267	0.01207	1.02712	0.25453	0.11076	1.48422	-0.02826	0.15144	1.32178	-0.02188	0.09288	1.45982	0.13849	0.07126	1.81380	0.05799	0.08256	1.82773	-0.04414	0.08873	1.16537	0.13644	-0.08170	1.53157	-0.02015	-0.05850	1.72032	0.02464	-0.05729	1.14543	0.13967	-0.04668	0.86517	0.23938	-0.10354	1.33531	-0.02331 
1394	11.608	-0.00210	1.51703	0.18651	-0.11209	1.36472	0.04706	-0.03489	1.71747	-0.08168	0.01121	1.30415	0.23415	-0.08990	1.46593	0.13171	0.04798	0.88504	0.21315	0.00473	1.16226	0.24271	0.01208	1.02711	0.25457	0.11077	1.48422	-0.02821	0.15145	1.32177	-0.02184	0.09289	1.45981	0.13853	0.07127	1.81380	0.05804	0.08258	1.82772	-0.04408	0.08874	1.16537	0.13648	-0.08169	1.53157	-0.02009	-0.05847	1.72028	0.02467	-0.05727	1.14542	0.13971	-0.04667	0.86517	0.23943	-0.10352	1.33530	-0.02326 
1395	11.617	-0.00209	1.51704	0.18658	-0.11207	1.36472	0.04712	-0.03487	1.71747	-0.08164	0.01125	1.30414	0.23420	-0.08988	1.46593	0.13177	0.04799	0.88503	0.21320	0.00475	1.16226	0.24277	0.01209	1.02711	0.25462	0.11079	1.48423	-0.02816	0.15145	1.32177	-0.02180	0.09291	1.45981	0.13857	0.07128	1.81379	0.05810	0.08260	1.82773	-0.04402	0.08876	1.16537	0.13652	-0.08166	1.53147	-0.02005	-0.05841	1.72021	0.02468	-0.05726	1.14541	0.13975	-0.04666	0.86516	0.23947	-0.10350	1.33530	-0.02321 
1396	11.625	-0.00205	1.51704	0.18667	-0.11205	1.36471	0.04718	-0.03485	1.71747	-0.08160	0.01131	1.30412	0.23427	-0.08986	1.46592	0.13182	0.04801	0.88502	0.21324	0.00477	1.16225	0.24282	0.01211	1.02712	0.25468	0.11081	1.48425	-0.02811	0.15146	1.32177	-0.02176	0.09293	1.45979	0.13862	0.07130	1.81379	0.05815	0.08262	1.82774	-0.04396	0.08877	1.16536	0.13657	-0.08162	1.53130	-0.02002	-0.05832	1.72012	0.02466	-0.05725	1.14540	0.13980	-0.04665	0.86515	0.23952	-0.10348	1.33529	-0.02316 
1397	11.633	-0.00202	1.51707	0.18678	-0.11203	1.36471	0.04724	-0.03484	1.71747	-0.08156	0.01137	1.30411	0.23433	-0.08983	1.46592	0.13188	0.04802	0.88501	0.21329	0.00479	1.16224	0.24287	0.01213	1.02714	0.25474	0.11084	1.48428	-0.02805	0.15147	1.32177	-0.02172	0.09295	1.45978	0.13866	0.07132	1.81378	0.05821	0.08264	1.82776	-0.04390	0.08879	1.16536	0.13661	-0.08158	1.53114	-0.01998	-0.05821	1.71999	0.02462	-0.05724	1.14539	0.13985	-0.04665	0.86514	0.23956	-0.10346	1.33528	-0.02311 
